<svg xmlns="http://www.w3.org/2000/svg" viewBox="0 0 505.2 412.8" xmlns:v="https://vecta.io/nano"><path d="M416.74.1c65.12 0 88.47 45.69 88.47 80.63-17.84-26.35-78.19-27.41-88.47 6.49h-14.81v107.84h-38.27V87.22h-16.4v-6.49c0-21.3-27.03-21.19-27.03 0h-22.11c-9.68 0-13.75-7.03-13.75-16.02V13.53C284.38 4.12 289.17.1 298.12.1h22.11c.08 20.23 27.11 20.6 27.11 0h69.4z" fill="#cacaca"/><path d="M416.74 195.06v183a1 1 0 0 1-69.48 0v-76.32c17.19-15.52 20.2-61.61 0-82.64v-24.04h69.48z" fill="#e1ae3d"/><path id="logo-letter" d="M131.6 0l47.2 164.4L110 412.8H0L131.6 0zm120 339.6H151.4l25.2-92.4h48L153.8 0h96.8L382 412.8H272l-20.4-73.2z" fill="#fff"/></svg>