<?xml version="1.0" standalone="no"?>
<!DOCTYPE svg PUBLIC "-//W3C//DTD SVG 20010904//EN"
 "http://www.w3.org/TR/2001/REC-SVG-20010904/DTD/svg10.dtd">
<svg version="1.0" xmlns="http://www.w3.org/2000/svg"
 width="1010.000000pt" height="1010.000000pt" viewBox="0 0 1010.000000 1010.000000"
 preserveAspectRatio="xMidYMid meet">
<metadata>
Created by potrace 1.14, written by Peter Selinger 2001-2017
</metadata>
<g transform="translate(0.000000,1010.000000) scale(0.100000,-0.100000)"
fill="#000000" stroke="none">
<path d="M3089 9148 c5 -13 8 -25 8 -28 0 -3 8 -32 18 -65 10 -33 19 -64 21
-70 1 -5 9 -36 19 -69 9 -32 18 -64 19 -70 1 -6 11 -38 21 -71 10 -33 19 -64
20 -70 2 -5 26 -91 55 -190 57 -199 81 -284 84 -302 1 -7 5 -16 9 -19 4 -4 7
-17 7 -29 0 -12 3 -25 8 -29 4 -4 7 -15 8 -24 0 -10 4 -24 7 -32 6 -14 38
-124 43 -145 2 -11 77 -271 93 -323 5 -18 10 -33 10 -35 0 -1 2 -9 5 -17 3 -8
14 -51 26 -95 12 -44 29 -107 39 -140 10 -33 24 -80 31 -105 7 -25 15 -52 18
-60 3 -8 7 -24 9 -35 2 -11 8 -31 13 -45 5 -14 11 -34 13 -45 2 -11 7 -27 10
-35 3 -8 9 -28 13 -45 4 -16 8 -32 9 -35 1 -3 7 -25 14 -50 6 -25 16 -56 22
-70 5 -14 11 -34 13 -46 5 -24 44 -162 53 -184 3 -8 7 -22 8 -30 2 -8 19 -71
39 -140 21 -69 39 -132 41 -140 2 -8 4 -15 5 -15 1 0 3 -7 5 -15 3 -15 17 -63
55 -197 11 -40 29 -103 40 -140 10 -38 26 -93 35 -123 9 -30 18 -62 20 -70 2
-8 15 -53 29 -100 14 -47 25 -87 26 -90 0 -3 6 -23 12 -45 6 -22 12 -42 13
-45 1 -5 16 -56 54 -190 10 -36 26 -90 35 -120 9 -30 16 -58 17 -62 0 -4 6
-26 14 -48 8 -22 15 -42 15 -45 0 -3 2 -10 4 -17 25 -79 189 -660 193 -680 l5
-28 -476 0 c-395 0 -478 -2 -482 -14 -4 -11 -64 -228 -79 -286 -2 -8 -4 -16
-5 -17 -3 -4 -6 -13 -15 -58 -4 -22 -10 -44 -14 -50 -3 -5 -6 -14 -6 -20 -1
-5 -7 -30 -14 -55 -7 -25 -15 -52 -16 -60 -2 -8 -4 -15 -5 -15 -1 0 -3 -7 -5
-15 -4 -20 -41 -161 -61 -230 -8 -30 -17 -62 -19 -70 -2 -8 -4 -15 -5 -15 -1
0 -3 -7 -5 -15 -2 -13 -29 -111 -39 -145 -2 -5 -6 -23 -11 -40 -4 -16 -21 -79
-37 -139 -16 -59 -31 -115 -34 -125 -8 -35 -53 -196 -54 -196 -1 0 -3 -7 -5
-15 -2 -8 -15 -58 -29 -110 -15 -52 -28 -99 -29 -105 -2 -5 -6 -15 -10 -21 -9
-16 13 -31 43 -29 14 1 33 -3 43 -7 9 -5 17 -5 17 -1 0 8 1886 10 1894 2 3 -2
7 -16 10 -29 2 -14 17 -65 31 -115 15 -49 29 -101 32 -114 2 -13 8 -31 12 -40
5 -9 9 -20 9 -24 -1 -9 55 -213 83 -304 10 -34 21 -70 22 -80 2 -10 6 -25 9
-33 6 -15 36 -123 43 -150 3 -17 20 -77 60 -220 29 -102 28 -100 39 -145 4
-16 10 -37 14 -45 3 -8 7 -19 8 -25 1 -5 3 -13 4 -17 3 -11 6 -19 14 -53 4
-16 10 -38 13 -48 4 -16 63 -17 1146 -17 989 1 1150 3 1202 16 88 22 142 44
210 83 65 37 202 168 227 216 8 17 24 46 34 65 27 48 50 114 65 185 9 46 12
492 13 1920 l1 1860 -149 5 -149 5 0 1070 c1 589 2 1073 2 1076 1 3 66 6 146
6 80 0 147 2 148 4 2 2 11 25 21 52 23 60 87 157 133 199 19 18 43 41 53 51
23 24 119 85 145 93 11 4 28 13 38 22 9 8 17 12 17 9 0 -4 20 2 45 13 25 11
45 17 45 13 0 -3 6 -1 13 5 11 9 33 15 97 27 14 3 36 7 50 10 87 18 257 22
380 10 72 -7 251 -48 303 -70 17 -7 35 -14 40 -14 17 -2 136 -66 192 -104 61
-41 147 -121 179 -167 17 -24 17 -23 12 70 -8 130 -13 162 -51 330 -6 27 -38
129 -45 145 -5 11 -19 45 -32 75 -27 67 -105 218 -119 230 -3 3 -15 22 -28 43
-13 21 -28 43 -34 50 -7 6 -25 30 -42 52 -25 34 -169 180 -207 210 -52 41
-136 102 -148 108 -8 4 -33 18 -55 31 -40 25 -98 54 -185 94 -50 22 -228 82
-238 80 -4 -1 -14 2 -22 5 -8 3 -40 11 -70 17 -30 5 -66 13 -80 15 -14 3 -47
8 -75 11 -27 3 -61 8 -75 11 -14 3 -388 7 -832 10 l-808 5 -2 -29 c-1 -15 -2
-36 -1 -45 0 -10 -3 -18 -7 -18 -3 0 -12 -20 -19 -44 -29 -101 -127 -170 -239
-170 -153 -1 -265 113 -276 279 -1 19 -8 20 -256 20 -294 -1 -311 -3 -378 -52
-17 -13 -42 -43 -55 -66 l-22 -42 -2 -613 c-1 -337 2 -621 6 -630 5 -9 16 -35
26 -57 29 -70 104 -135 156 -135 10 0 20 -3 22 -7 3 -5 117 -8 253 -8 l248 1
3 34 c2 19 5 44 8 55 2 11 5 25 6 30 3 20 39 83 65 114 90 107 273 111 371 8
65 -67 85 -133 87 -279 0 -87 1 -88 26 -89 14 -1 86 -1 160 -1 74 0 137 -4
140 -8 4 -6 5 -2015 1 -2122 l-1 -28 -162 -2 -163 -3 0 -235 0 -235 46 -58
c26 -32 62 -86 80 -120 39 -72 80 -167 72 -167 -3 0 -1 -6 5 -12 22 -28 66
-237 67 -320 0 -21 2 -38 5 -38 7 0 4 -215 -4 -290 -10 -97 -24 -174 -41 -225
-7 -22 -16 -53 -20 -70 -6 -27 -19 -58 -73 -175 -9 -19 -18 -37 -22 -40 -3 -3
-18 -23 -33 -46 -15 -22 -41 -53 -57 -69 -16 -15 -27 -32 -24 -37 3 -4 0 -8
-5 -8 -6 0 -11 8 -11 19 0 10 -7 35 -15 55 -8 20 -14 37 -14 38 2 3 -68 227
-133 425 -22 67 -41 127 -42 135 -1 7 -22 72 -45 143 -24 72 -44 135 -45 140
-2 6 -20 64 -41 130 -22 66 -40 122 -40 125 -1 3 -16 52 -35 110 -19 58 -35
107 -35 110 -1 3 -4 12 -7 20 -4 8 -27 83 -53 165 -25 83 -50 161 -55 175 -13
36 -122 381 -125 394 -1 6 -5 18 -8 26 -3 8 -36 110 -72 225 -58 181 -117 367
-158 495 -6 19 -12 37 -12 40 0 3 -10 34 -22 70 -22 68 -130 409 -189 595 -19
61 -38 117 -41 125 -3 8 -7 20 -8 25 -3 14 -102 326 -125 395 -27 80 -91 283
-95 300 -2 8 -15 49 -28 90 -49 147 -139 430 -141 444 -1 9 -5 19 -9 22 -4 4
-7 18 -7 31 0 13 -5 23 -10 23 -6 0 -9 3 -8 8 1 4 -5 27 -12 52 -8 25 -14 47
-15 50 -2 10 -27 85 -32 100 -8 19 -7 18 -17 60 -5 19 -11 40 -14 45 -7 11
-12 32 -14 53 -1 6 -5 12 -10 12 -4 0 -7 3 -6 8 1 4 -7 34 -17 67 -10 33 -20
65 -21 70 -1 6 -9 29 -18 53 -8 23 -15 43 -15 45 0 1 -2 9 -5 17 -2 8 -10 33
-16 55 -6 22 -15 49 -20 60 -4 11 -21 62 -36 113 l-29 92 -967 0 -968 0 9 -22z"/>
<path d="M2616 9104 c-10 -30 -19 -63 -21 -73 -2 -9 -10 -34 -19 -55 -8 -20
-15 -40 -14 -44 1 -4 -2 -14 -5 -22 -4 -8 -25 -73 -47 -145 -23 -71 -52 -161
-65 -200 -13 -38 -42 -131 -65 -205 -23 -74 -44 -142 -47 -150 -3 -8 -7 -19
-9 -25 -1 -5 -9 -30 -17 -55 -8 -25 -36 -112 -62 -195 -68 -214 -133 -417
-214 -670 -39 -121 -84 -265 -101 -320 -18 -55 -34 -107 -37 -115 -8 -18 -7
-17 -17 -60 -5 -19 -12 -41 -17 -50 -6 -11 -90 -271 -104 -320 -1 -3 -10 -32
-20 -65 -11 -33 -19 -62 -20 -65 0 -3 -9 -30 -20 -60 -10 -30 -20 -60 -21 -67
-1 -7 -20 -68 -42 -135 -22 -68 -70 -217 -107 -333 -36 -115 -70 -221 -75
-235 -10 -30 -134 -413 -135 -420 -3 -12 -58 -189 -70 -225 -8 -22 -44 -134
-81 -250 -36 -115 -78 -246 -92 -290 -14 -44 -27 -84 -28 -90 -1 -5 -10 -32
-19 -60 -10 -27 -18 -54 -20 -60 -7 -35 -19 -71 -25 -80 -4 -5 -13 -32 -20
-60 -7 -27 -16 -54 -19 -60 -3 -5 -6 -15 -7 -22 -2 -13 -31 -107 -41 -133 -3
-8 -7 -21 -9 -28 -1 -8 -6 -21 -10 -30 -4 -9 -8 -22 -9 -28 -2 -7 -20 -63 -40
-125 -20 -63 -38 -121 -40 -129 -2 -8 -10 -35 -19 -60 -9 -25 -18 -52 -21 -60
-2 -8 -29 -94 -60 -190 -31 -96 -58 -182 -60 -190 -2 -8 -23 -73 -46 -145 -24
-71 -43 -132 -44 -135 -1 -3 -10 -32 -20 -65 -11 -33 -19 -62 -20 -65 0 -3
-11 -35 -23 -71 -12 -36 -24 -74 -27 -85 -2 -10 -20 -66 -40 -124 -19 -58 -37
-114 -40 -125 -2 -11 -14 -47 -25 -80 -12 -33 -23 -64 -24 -70 -2 -5 -11 -37
-21 -70 -11 -33 -19 -62 -20 -65 0 -3 -28 -90 -62 -195 -34 -104 -91 -284
-128 -400 -36 -115 -68 -216 -70 -222 -4 -10 220 -13 1094 -13 l1098 0 47 168
c26 92 49 174 51 182 2 8 11 40 19 70 8 30 21 80 29 110 9 30 22 80 30 110 9
30 29 105 47 165 17 61 33 117 35 125 3 15 20 74 56 205 11 39 22 77 24 85 2
8 4 15 5 15 1 0 3 5 14 50 4 18 29 113 41 155 10 34 55 196 61 215 3 11 7 27
9 35 2 8 4 15 5 15 1 0 3 11 6 25 2 14 11 42 20 64 8 21 13 41 10 43 -3 3 0
17 6 32 12 30 78 266 83 296 2 11 4 21 5 23 2 1 3 5 4 10 0 4 7 25 14 47 13
43 81 288 88 317 2 10 6 26 8 35 2 10 11 38 20 63 8 25 17 59 21 77 3 18 10
44 15 58 5 14 12 38 15 53 7 32 10 42 18 62 8 19 29 99 34 125 3 20 40 148 50
175 3 8 7 22 8 30 3 20 24 101 32 120 7 18 9 27 16 62 3 15 8 32 12 38 3 5 8
18 10 28 2 10 18 72 35 138 18 65 33 124 35 129 1 6 4 17 8 25 9 24 66 234 71
261 2 13 5 25 7 27 1 1 2 5 3 10 2 4 8 27 15 52 7 25 15 52 16 60 2 8 4 16 5
18 2 1 3 5 4 10 2 4 8 27 15 52 7 25 15 52 16 60 2 8 4 15 6 15 1 0 3 9 5 20
1 11 16 67 33 125 61 218 103 366 106 380 1 8 8 33 14 55 7 29 8 52 0 79 -6
21 -12 46 -14 55 -2 9 -22 77 -45 151 -23 74 -42 144 -44 155 -2 11 -6 27 -9
35 -8 21 -24 76 -41 140 -8 30 -27 96 -41 145 -15 50 -29 99 -32 110 -6 26 -9
37 -16 55 -5 13 -41 138 -53 183 -10 41 -15 58 -49 172 -19 66 -37 127 -39
135 -2 8 -6 22 -9 30 -4 8 -8 24 -10 35 -2 11 -6 27 -9 35 -3 8 -11 33 -16 55
-6 22 -14 51 -18 65 -4 14 -6 26 -5 28 1 1 -5 18 -13 37 -8 19 -12 35 -9 35 3
0 0 6 -6 13 -6 8 -8 17 -4 20 3 4 1 12 -5 20 -6 7 -13 24 -16 37 -3 14 -10 41
-15 60 -5 19 -13 46 -16 60 -4 14 -9 32 -12 40 -7 18 -10 28 -16 55 -2 11 -7
27 -10 35 -3 8 -11 35 -18 60 -7 25 -14 50 -15 55 -2 6 -8 26 -13 45 -5 19
-26 91 -46 160 -20 69 -37 130 -39 135 -2 6 -6 24 -11 40 -4 17 -16 58 -27 93
-11 34 -21 68 -22 75 -6 29 -19 75 -33 117 -8 25 -17 54 -19 64 -2 10 -8 33
-14 51 -6 18 -12 41 -15 51 -2 10 -13 51 -25 89 -12 39 -23 79 -26 90 -3 11
-7 25 -8 30 -2 6 -7 25 -11 43 -11 49 -20 46 -39 -14z"/>
</g>
</svg>
